<?xml version="1.0" ?><!DOCTYPE svg  PUBLIC '-//W3C//DTD SVG 1.1//EN'  'http://www.w3.org/Graphics/SVG/1.1/DTD/svg11.dtd'><!-- Uploaded to: SVGRepo, www.svgrepo.com, Transformed by: SVGRepo Tools -->
<svg width="800px" height="800px" viewBox="0 0 512 512" enable-background="new 0 0 512 512" id="Layer_1" version="1.1" xml:space="preserve" xmlns="http://www.w3.org/2000/svg" xmlns:xlink="http://www.w3.org/1999/xlink"><path d="M415.8,175.4h-80.2v-45.5c0-11.9-9.7-21.7-21.6-21.7h-9.9c-0.1,0-0.1,0-0.2,0c-0.7-5.4-5.4-9.7-11-9.7h-73.8  c-5.7,0-10.3,4.2-11,9.7c-0.1,0-0.1,0-0.2,0H198c-11.9,0-21.6,9.7-21.6,21.7v45.5H96.2c-10.4,0-18.7,8.4-18.7,18.7v200.6  c0,10.4,8.4,18.7,18.7,18.7h319.6c10.4,0,18.7-8.4,18.7-18.7V194.1C434.5,183.8,426.1,175.4,415.8,175.4z M193.7,129.9  c0-2.4,1.9-4.3,4.3-4.3h9.9c0.1,0,0.1,0,0.2,0c0.7,5.5,5.4,9.7,11,9.7h73.8c5.7,0,10.3-4.2,11-9.7c0.1,0,0.1,0,0.2,0h9.9  c2.4,0,4.3,2,4.3,4.3v45.5H193.7V129.9z M131,215.6h-8.3c-0.7,0-1.3,0.6-1.3,1.3v5.2c0,4.8-3.9,8.7-8.7,8.7c-4.8,0-8.7-3.9-8.7-8.7  v-5.2c0-10.2,8.3-18.6,18.6-18.6h8.3c4.8,0,8.7,3.9,8.7,8.7C139.6,211.8,135.8,215.6,131,215.6z M407.8,371.9  c0,10.2-8.3,18.6-18.6,18.6H381c-4.8,0-8.7-3.9-8.7-8.7s3.9-8.7,8.7-8.7h8.3c0.7,0,1.3-0.6,1.3-1.3v-5.2c0-4.8,3.9-8.7,8.7-8.7  s8.7,3.9,8.7,8.7V371.9z" fill="#000"/></svg>