<!DOCTYPE svg PUBLIC "-//W3C//DTD SVG 1.1//EN" "http://www.w3.org/Graphics/SVG/1.1/DTD/svg11.dtd">
<svg width="200px" height="200px" viewBox="0 0 1024 1024" class="icon" xmlns="http://www.w3.org/2000/svg" fill="#000000" stroke="#000000" stroke-width="0">
<g id="SVGRepo_bgCarrier" stroke-width="0"/>
<path fill="#000000" d="M128 384h768v-64a64 64 0 00-64-64H192a64 64 0 00-64 64v64zm0 64v320a64 64 0 0064 64h640a64 64 0 0064-64V448H128zm64-256h640a128 128 0 01128 128v448a128 128 0 01-128 128H192A128 128 0 0164 768V320a128 128 0 01128-128z"/>
<path fill="#000000" d="M384 128v64h256v-64H384zm0-64h256a64 64 0 0164 64v64a64 64 0 01-64 64H384a64 64 0 01-64-64v-64a64 64 0 0164-64z"/>
</svg>